<?xml version="1.0" encoding="utf-8"?>
<!-- Generator: Adobe Illustrator 19.0.0, SVG Export Plug-In . SVG Version: 6.00 Build 0)  -->
<svg version="1.1" id="Calque_1" xmlns="http://www.w3.org/2000/svg" xmlns:xlink="http://www.w3.org/1999/xlink" x="0px" y="0px"
	 viewBox="0 0 690.6 120.7" style="enable-background:new 0 0 690.6 120.7;" xml:space="preserve">
<style type="text/css">
	.st0{fill:#1EACAF;}
	.st1{fill:#383838;}
</style>
<path id="XMLID_510_" class="st0" d="M218,42.4V56h-6.3c-0.3-2.6-1.4-4.6-3.2-6c-1.8-1.4-3.9-2.1-6.2-2.1c-3.2,0-5.7,1.1-7.7,3.4
	c-2,2.2-3,5.2-3,8.8c0,3.4,0.9,6.4,2.8,8.9c1.9,2.6,4.6,3.9,8.1,3.9c4.9,0,8.5-2.3,10.7-7l5.8,2.7c-3.2,7.1-8.8,10.7-16.9,10.7
	c-5.7,0-10.1-1.9-13.4-5.8c-3.3-3.9-4.9-8.3-4.9-13.4c0-5.4,1.8-9.9,5.3-13.4s7.7-5.3,12.3-5.3c4,0,7.3,1.2,10.1,3.5v-2.5H218z"/>
<path id="XMLID_512_" class="st0" d="M260.1,72.2v6.3h-12.3v-4.4c-3.4,3.3-7.2,5-11.4,5c-3.3,0-6.1-1.1-8.5-3.2
	c-2.4-2.1-3.6-4.8-3.6-8.1c0-3.3,1.3-6.1,3.8-8.3c2.6-2.2,5.6-3.3,9.2-3.3c3.4,0,6.6,1,9.7,3v-3.6c0-1.8-0.2-3.2-0.5-4.2
	c-0.3-1-1.2-1.9-2.4-2.7c-1.3-0.8-2.9-1.2-5-1.2c-3.5,0-6.1,1.4-7.7,4.2l-6.7-1.8c3-5.6,8.1-8.4,15.5-8.4c2.7,0,5,0.4,7,1.1
	c2,0.7,3.4,1.7,4.4,2.8c1,1.1,1.6,2.4,1.9,3.7c0.3,1.3,0.5,3.5,0.5,6.4v16.6H260.1z M247.1,65.1c-3-2.4-6.1-3.6-9.2-3.6
	c-2,0-3.6,0.6-4.9,1.7c-1.3,1.1-2,2.6-2,4.4c0,1.7,0.6,3.1,1.7,4.2c1.1,1.1,2.7,1.7,4.7,1.7c3.4,0,6.6-1.4,9.7-4.3V65.1z"/>
<path id="XMLID_515_" class="st0" d="M270,72.3V49h-7.2v-6.3h12.9v8.1c0.8-2.1,1.9-3.8,3.3-5.2c1.4-1.4,2.9-2.3,4.5-2.7
	c1.6-0.4,3.7-0.7,6.4-0.7h1.9v7.1h-1.4c-3.6,0-6.3,0.4-8,1.1c-1.8,0.7-3.1,2-3.9,3.9c-0.9,1.9-1.3,5.3-1.3,10.2v7.9h7.8v6.3h-22.1
	v-6.3H270z"/>
<path id="XMLID_517_" class="st0" d="M299.1,72.8v-39h-6.4v-6.3h13.4v45.3h5.5v6.3h-18.9v-6.3H299.1z"/>
<path id="XMLID_519_" class="st0" d="M316.3,60.3c0-5.5,1.8-10.1,5.5-13.6c3.7-3.5,8.1-5.3,13.4-5.3c5.2,0,9.6,1.7,13.3,5.2
	c3.7,3.5,5.6,8.1,5.6,13.7s-1.8,10.2-5.5,13.7c-3.7,3.5-8.1,5.3-13.3,5.3c-5.3,0-9.8-1.8-13.4-5.3C318.1,70.4,316.3,65.9,316.3,60.3
	z M323.7,60.3c0,3.5,1.1,6.4,3.3,8.7c2.2,2.3,4.9,3.4,8.1,3.4c3.2,0,5.9-1.1,8.1-3.4c2.2-2.3,3.3-5.2,3.3-8.7c0-3.5-1.1-6.4-3.3-8.7
	c-2.2-2.3-4.9-3.4-8.1-3.4c-3.3,0-6,1.2-8.2,3.5C324.8,54,323.7,56.9,323.7,60.3z"/>
<path id="XMLID_522_" class="st0" d="M360,78.3V66h6.3v1.2c0.2,1.7,1.1,3.1,2.7,4.1c1.6,1.1,3.5,1.6,5.6,1.6c2.3,0,4.1-0.4,5.4-1.2
	c1.4-0.8,2-1.9,2-3.3c0-1.4-0.6-2.4-1.7-3c-1.1-0.6-3.4-1.2-6.7-1.8c-4.9-0.8-8.5-2.2-10.6-4c-2.1-1.9-3.2-4.3-3.2-7.2
	c0-3,1.1-5.5,3.4-7.5c2.3-2,5.3-3,9.1-3c3.4,0,6.3,0.7,8.7,2.1v-1.5h6.3v11.9h-6.3v-2.2c-1.9-2.9-4.7-4.4-8.3-4.4
	c-1.9,0-3.4,0.4-4.6,1.2c-1.2,0.8-1.8,1.9-1.8,3.2c0,1.4,0.5,2.3,1.6,2.8c1.1,0.5,3.5,1,7.1,1.6c3.5,0.5,6.1,1.2,7.9,1.9
	c1.8,0.7,3.3,1.9,4.4,3.6c1.2,1.7,1.8,3.7,1.8,5.9c0,3.3-1.3,6-3.8,8c-2.6,2-5.9,2.9-9.9,2.9c-3.8,0-7-0.9-9.4-2.6v2H360z"/>
<path id="XMLID_524_" class="st1" d="M447.2,42.4V56h-6.3c-0.3-2.6-1.4-4.6-3.2-6c-1.8-1.4-3.9-2.1-6.2-2.1c-3.2,0-5.7,1.1-7.7,3.4
	c-2,2.2-3,5.2-3,8.8c0,3.4,0.9,6.4,2.8,8.9c1.9,2.6,4.6,3.9,8.1,3.9c4.9,0,8.5-2.3,10.7-7l5.8,2.7c-3.2,7.1-8.8,10.7-16.9,10.7
	c-5.7,0-10.1-1.9-13.4-5.8c-3.3-3.9-4.9-8.3-4.9-13.4c0-5.4,1.8-9.9,5.3-13.4c3.6-3.5,7.7-5.3,12.3-5.3c4,0,7.3,1.2,10.1,3.5v-2.5
	H447.2z"/>
<path id="XMLID_526_" class="st1" d="M489.4,72.2v6.3h-12.3v-4.4c-3.4,3.3-7.2,5-11.4,5c-3.3,0-6.1-1.1-8.5-3.2
	c-2.4-2.1-3.6-4.8-3.6-8.1c0-3.3,1.3-6.1,3.8-8.3c2.6-2.2,5.6-3.3,9.2-3.3c3.4,0,6.6,1,9.7,3v-3.6c0-1.8-0.2-3.2-0.5-4.2
	c-0.3-1-1.2-1.9-2.4-2.7c-1.3-0.8-2.9-1.2-5-1.2c-3.5,0-6.1,1.4-7.7,4.2l-6.7-1.8c3-5.6,8.1-8.4,15.5-8.4c2.7,0,5,0.4,7,1.1
	c2,0.7,3.4,1.7,4.4,2.8c1,1.1,1.6,2.4,1.9,3.7c0.3,1.3,0.5,3.5,0.5,6.4v16.6H489.4z M476.4,65.1c-3-2.4-6.1-3.6-9.2-3.6
	c-2,0-3.6,0.6-4.9,1.7c-1.3,1.1-2,2.6-2,4.4c0,1.7,0.6,3.1,1.7,4.2c1.1,1.1,2.7,1.7,4.7,1.7c3.4,0,6.6-1.4,9.7-4.3V65.1z"/>
<path id="XMLID_529_" class="st1" d="M505.7,42.7V47c4.5-3.3,8.6-4.9,12.4-4.9c2.3,0,4.2,0.6,5.8,1.6c1.5,1.1,2.5,2.4,3,4
	c0.5,1.6,0.7,3.9,0.7,7v17.5h6v6.3h-13.1V55.1c0-2.7-0.4-4.5-1.2-5.3c-0.8-0.8-1.8-1.2-3-1.2c-3.1,0-6.6,1.5-10.6,4.6v19.2h6.2v6.3
	h-19.5v-6.3h6.3V49h-6.3v-6.3H505.7z"/>
<path id="XMLID_531_" class="st1" d="M574.5,62.1h-30.2c0.4,3.3,1.8,6,3.9,8c2.2,2.1,4.9,3.1,8.3,3.1c4.9,0,8.8-2,11.7-5.9l6.2,2.7
	c-2,3.1-4.7,5.5-7.9,7c-3.2,1.5-6.6,2.3-10.1,2.3c-5.5,0-10.2-1.7-14.1-5.1c-3.9-3.4-5.8-8-5.8-13.8c0-5.5,1.9-10,5.7-13.6
	c3.8-3.6,8.1-5.3,13.1-5.3c4.8,0,9.2,1.7,13.1,5.2C572.3,50.1,574.4,55.2,574.5,62.1z M567.3,57c-0.5-2.5-1.8-4.8-3.9-6.8
	c-2.1-2-4.7-3.1-7.8-3.1c-2.8,0-5.2,0.9-7.2,2.8c-2,1.8-3.2,4.2-3.7,7.1H567.3z"/>
<path id="XMLID_534_" class="st1" d="M585.2,72.8v-39h-6.4v-6.3h13.4v45.3h5.5v6.3h-18.9v-6.3H585.2z"/>
<path id="XMLID_536_" class="st1" d="M602.4,61.1c0-5.5,1.8-10.1,5.5-13.6c3.7-3.5,8.1-5.3,13.4-5.3c5.2,0,9.6,1.7,13.3,5.2
	c3.7,3.5,5.6,8.1,5.6,13.7s-1.8,10.2-5.5,13.7c-3.7,3.5-8.1,5.3-13.3,5.3c-5.3,0-9.8-1.8-13.4-5.3C604.2,71.1,602.4,66.6,602.4,61.1
	z M609.8,61c0,3.5,1.1,6.4,3.3,8.7c2.2,2.3,4.9,3.4,8.1,3.4c3.2,0,5.9-1.1,8.1-3.4c2.2-2.3,3.3-5.2,3.3-8.7c0-3.5-1.1-6.4-3.3-8.7
	c-2.2-2.3-4.9-3.4-8.1-3.4c-3.3,0-6,1.2-8.2,3.5C610.9,54.8,609.8,57.6,609.8,61z M616.2,38.4l5.2-11.7h10.2l-10.7,11.7H616.2z"/>
<path id="XMLID_540_" class="st1" d="M658.4,42.7V47c4.5-3.3,8.6-4.9,12.4-4.9c2.3,0,4.2,0.6,5.8,1.6c1.5,1.1,2.5,2.4,3,4
	c0.5,1.6,0.7,3.9,0.7,7v17.5h6v6.3h-13.1V55.1c0-2.7-0.4-4.5-1.2-5.3c-0.8-0.8-1.8-1.2-3-1.2c-3.1,0-6.6,1.5-10.6,4.6v19.2h6.2v6.3
	H645v-6.3h6.3V49H645v-6.3H658.4z"/>
<polygon id="XMLID_509_" class="st0" points="22,32.9 22,67.9 73,98.7 73,116.9 3,75.6 3,4.2 73,45.4 73,63.6 "/>
<polygon id="XMLID_508_" class="st1" points="97,88.1 97,53.1 152,22.4 152,4.2 78,45.4 78,116.9 152,75.6 152,57.4 "/>
</svg>
