<?xml version="1.0" encoding="utf-8"?>
<!-- Generator: Adobe Illustrator 19.0.0, SVG Export Plug-In . SVG Version: 6.00 Build 0)  -->
<svg version="1.1" id="Calque_1" xmlns="http://www.w3.org/2000/svg" xmlns:xlink="http://www.w3.org/1999/xlink" x="0px" y="0px"
	 viewBox="65 220.3 690.6 120.7" style="enable-background:new 65 220.3 690.6 120.7;" xml:space="preserve">
<style type="text/css">
	.st0{fill:#1EACAF;}
	.st1{fill:#FFFFFF;}
</style>
<path id="XMLID_510_" class="st0" d="M283,262.7v13.6h-6.3c-0.3-2.6-1.4-4.6-3.2-6c-1.8-1.4-3.9-2.1-6.2-2.1c-3.2,0-5.7,1.1-7.7,3.4
	c-2,2.2-3,5.2-3,8.8c0,3.4,0.9,6.4,2.8,8.9c1.9,2.6,4.6,3.9,8.1,3.9c4.9,0,8.5-2.3,10.7-7l5.8,2.7c-3.2,7.1-8.8,10.7-16.9,10.7
	c-5.7,0-10.1-1.9-13.4-5.8c-3.3-3.9-4.9-8.3-4.9-13.4c0-5.4,1.8-9.9,5.3-13.4s7.7-5.3,12.3-5.3c4,0,7.3,1.2,10.1,3.5v-2.5L283,262.7
	L283,262.7z"/>
<path id="XMLID_512_" class="st0" d="M325.1,292.5v6.3h-12.3v-4.4c-3.4,3.3-7.2,5-11.4,5c-3.3,0-6.1-1.1-8.5-3.2
	c-2.4-2.1-3.6-4.8-3.6-8.1c0-3.3,1.3-6.1,3.8-8.3c2.6-2.2,5.6-3.3,9.2-3.3c3.4,0,6.6,1,9.7,3v-3.6c0-1.8-0.2-3.2-0.5-4.2
	s-1.2-1.9-2.4-2.7c-1.3-0.8-2.9-1.2-5-1.2c-3.5,0-6.1,1.4-7.7,4.2l-6.7-1.8c3-5.6,8.1-8.4,15.5-8.4c2.7,0,5,0.4,7,1.1
	c2,0.7,3.4,1.7,4.4,2.8s1.6,2.4,1.9,3.7c0.3,1.3,0.5,3.5,0.5,6.4v16.6L325.1,292.5L325.1,292.5z M312.1,285.4
	c-3-2.4-6.1-3.6-9.2-3.6c-2,0-3.6,0.6-4.9,1.7s-2,2.6-2,4.4c0,1.7,0.6,3.1,1.7,4.2c1.1,1.1,2.7,1.7,4.7,1.7c3.4,0,6.6-1.4,9.7-4.3
	V285.4z"/>
<path id="XMLID_515_" class="st0" d="M335,292.6v-23.3h-7.2V263h12.9v8.1c0.8-2.1,1.9-3.8,3.3-5.2c1.4-1.4,2.9-2.3,4.5-2.7
	c1.6-0.4,3.7-0.7,6.4-0.7h1.9v7.1h-1.4c-3.6,0-6.3,0.4-8,1.1c-1.8,0.7-3.1,2-3.9,3.9c-0.9,1.9-1.3,5.3-1.3,10.2v7.9h7.8v6.3h-22.1
	v-6.3h7.1V292.6z"/>
<path id="XMLID_517_" class="st0" d="M364.1,293.1v-39h-6.4v-6.3h13.4v45.3h5.5v6.3h-18.9v-6.3H364.1z"/>
<path id="XMLID_519_" class="st0" d="M381.3,280.6c0-5.5,1.8-10.1,5.5-13.6s8.1-5.3,13.4-5.3c5.2,0,9.6,1.7,13.3,5.2
	c3.7,3.5,5.6,8.1,5.6,13.7s-1.8,10.2-5.5,13.7s-8.1,5.3-13.3,5.3c-5.3,0-9.8-1.8-13.4-5.3C383.1,290.7,381.3,286.2,381.3,280.6z
	 M388.7,280.6c0,3.5,1.1,6.4,3.3,8.7c2.2,2.3,4.9,3.4,8.1,3.4s5.9-1.1,8.1-3.4c2.2-2.3,3.3-5.2,3.3-8.7s-1.1-6.4-3.3-8.7
	c-2.2-2.3-4.9-3.4-8.1-3.4c-3.3,0-6,1.2-8.2,3.5C389.8,274.3,388.7,277.2,388.7,280.6z"/>
<path id="XMLID_522_" class="st0" d="M425,298.6v-12.3h6.3v1.2c0.2,1.7,1.1,3.1,2.7,4.1c1.6,1.1,3.5,1.6,5.6,1.6
	c2.3,0,4.1-0.4,5.4-1.2c1.4-0.8,2-1.9,2-3.3c0-1.4-0.6-2.4-1.7-3c-1.1-0.6-3.4-1.2-6.7-1.8c-4.9-0.8-8.5-2.2-10.6-4
	c-2.1-1.9-3.2-4.3-3.2-7.2c0-3,1.1-5.5,3.4-7.5s5.3-3,9.1-3c3.4,0,6.3,0.7,8.7,2.1v-1.5h6.3v11.9H446v-2.2c-1.9-2.9-4.7-4.4-8.3-4.4
	c-1.9,0-3.4,0.4-4.6,1.2c-1.2,0.8-1.8,1.9-1.8,3.2c0,1.4,0.5,2.3,1.6,2.8s3.5,1,7.1,1.6c3.5,0.5,6.1,1.2,7.9,1.9
	c1.8,0.7,3.3,1.9,4.4,3.6c1.2,1.7,1.8,3.7,1.8,5.9c0,3.3-1.3,6-3.8,8c-2.6,2-5.9,2.9-9.9,2.9c-3.8,0-7-0.9-9.4-2.6v2
	C431,298.6,425,298.6,425,298.6z"/>
<path id="XMLID_524_" class="st1" d="M512.2,262.7v13.6h-6.3c-0.3-2.6-1.4-4.6-3.2-6c-1.8-1.4-3.9-2.1-6.2-2.1
	c-3.2,0-5.7,1.1-7.7,3.4c-2,2.2-3,5.2-3,8.8c0,3.4,0.9,6.4,2.8,8.9c1.9,2.6,4.6,3.9,8.1,3.9c4.9,0,8.5-2.3,10.7-7l5.8,2.7
	c-3.2,7.1-8.8,10.7-16.9,10.7c-5.7,0-10.1-1.9-13.4-5.8c-3.3-3.9-4.9-8.3-4.9-13.4c0-5.4,1.8-9.9,5.3-13.4c3.6-3.5,7.7-5.3,12.3-5.3
	c4,0,7.3,1.2,10.1,3.5v-2.5L512.2,262.7L512.2,262.7z"/>
<path id="XMLID_526_" class="st1" d="M554.4,292.5v6.3h-12.3v-4.4c-3.4,3.3-7.2,5-11.4,5c-3.3,0-6.1-1.1-8.5-3.2
	c-2.4-2.1-3.6-4.8-3.6-8.1c0-3.3,1.3-6.1,3.8-8.3c2.6-2.2,5.6-3.3,9.2-3.3c3.4,0,6.6,1,9.7,3v-3.6c0-1.8-0.2-3.2-0.5-4.2
	c-0.3-1-1.2-1.9-2.4-2.7c-1.3-0.8-2.9-1.2-5-1.2c-3.5,0-6.1,1.4-7.7,4.2l-6.7-1.8c3-5.6,8.1-8.4,15.5-8.4c2.7,0,5,0.4,7,1.1
	c2,0.7,3.4,1.7,4.4,2.8s1.6,2.4,1.9,3.7c0.3,1.3,0.5,3.5,0.5,6.4v16.6L554.4,292.5L554.4,292.5z M541.4,285.4
	c-3-2.4-6.1-3.6-9.2-3.6c-2,0-3.6,0.6-4.9,1.7s-2,2.6-2,4.4c0,1.7,0.6,3.1,1.7,4.2s2.7,1.7,4.7,1.7c3.4,0,6.6-1.4,9.7-4.3V285.4
	L541.4,285.4z"/>
<path id="XMLID_529_" class="st1" d="M570.7,263v4.3c4.5-3.3,8.6-4.9,12.4-4.9c2.3,0,4.2,0.6,5.8,1.6c1.5,1.1,2.5,2.4,3,4
	s0.7,3.9,0.7,7v17.5h6v6.3h-13.1v-23.4c0-2.7-0.4-4.5-1.2-5.3c-0.8-0.8-1.8-1.2-3-1.2c-3.1,0-6.6,1.5-10.6,4.6v19.2h6.2v6.3h-19.5
	v-6.3h6.3v-23.4h-6.3V263H570.7z"/>
<path id="XMLID_531_" class="st1" d="M639.5,282.4h-30.2c0.4,3.3,1.8,6,3.9,8c2.2,2.1,4.9,3.1,8.3,3.1c4.9,0,8.8-2,11.7-5.9l6.2,2.7
	c-2,3.1-4.7,5.5-7.9,7s-6.6,2.3-10.1,2.3c-5.5,0-10.2-1.7-14.1-5.1c-3.9-3.4-5.8-8-5.8-13.8c0-5.5,1.9-10,5.7-13.6s8.1-5.3,13.1-5.3
	c4.8,0,9.2,1.7,13.1,5.2C637.3,270.4,639.4,275.5,639.5,282.4z M632.3,277.3c-0.5-2.5-1.8-4.8-3.9-6.8c-2.1-2-4.7-3.1-7.8-3.1
	c-2.8,0-5.2,0.9-7.2,2.8c-2,1.8-3.2,4.2-3.7,7.1H632.3z"/>
<path id="XMLID_534_" class="st1" d="M650.2,293.1v-39h-6.4v-6.3h13.4v45.3h5.5v6.3h-18.9v-6.3H650.2z"/>
<path id="XMLID_536_" class="st1" d="M667.4,281.4c0-5.5,1.8-10.1,5.5-13.6s8.1-5.3,13.4-5.3c5.2,0,9.6,1.7,13.3,5.2
	s5.6,8.1,5.6,13.7s-1.8,10.2-5.5,13.7s-8.1,5.3-13.3,5.3c-5.3,0-9.8-1.8-13.4-5.3C669.2,291.4,667.4,286.9,667.4,281.4z
	 M674.8,281.3c0,3.5,1.1,6.4,3.3,8.7s4.9,3.4,8.1,3.4c3.2,0,5.9-1.1,8.1-3.4c2.2-2.3,3.3-5.2,3.3-8.7s-1.1-6.4-3.3-8.7
	c-2.2-2.3-4.9-3.4-8.1-3.4c-3.3,0-6,1.2-8.2,3.5C675.9,275.1,674.8,277.9,674.8,281.3z M681.2,258.7l5.2-11.7h10.2l-10.7,11.7H681.2
	z"/>
<path id="XMLID_540_" class="st1" d="M723.4,263v4.3c4.5-3.3,8.6-4.9,12.4-4.9c2.3,0,4.2,0.6,5.8,1.6c1.5,1.1,2.5,2.4,3,4
	s0.7,3.9,0.7,7v17.5h6v6.3h-13.1v-23.4c0-2.7-0.4-4.5-1.2-5.3c-0.8-0.8-1.8-1.2-3-1.2c-3.1,0-6.6,1.5-10.6,4.6v19.2h6.2v6.3H710
	v-6.3h6.3v-23.4H710V263H723.4z"/>
<polygon id="XMLID_509_" class="st0" points="87,253.2 87,288.2 138,319 138,337.2 68,295.9 68,224.5 138,265.7 138,283.9 "/>
<polygon id="XMLID_508_" class="st1" points="162,308.4 162,273.4 217,242.7 217,224.5 143,265.7 143,337.2 217,295.9 217,277.7 "/>
</svg>
