<?xml version="1.0" encoding="UTF-8"?><svg id="Layer_2" xmlns="http://www.w3.org/2000/svg" xmlns:xlink="http://www.w3.org/1999/xlink" viewBox="0 0 1090.68 147.68"><defs><style>.cls-1{fill:none;}.cls-2{clip-path:url(#clippath);}.cls-3{fill:#fff;}.cls-4{fill:#a2d9d9;}</style><clipPath id="clippath"><rect class="cls-1" width="1090.68" height="147.68"/></clipPath></defs><g id="Capa_1"><g class="cls-2"><path class="cls-4" d="m97.97,101.9h-37.82v36.13c0,3.42,2.77,6.19,6.19,6.19h74.73c3.42,0,6.19-2.77,6.19-6.19v-73c0-3.42-2.77-6.19-6.19-6.19h-36.91v36.87c0,3.42-2.77,6.19-6.19,6.19"/><path class="cls-3" d="m46.49,58.84H6.3c-3.42,0-6.19,2.77-6.19,6.19v73c0,3.42,2.77,6.19,6.19,6.19h40.19c3.42,0,6.19-2.77,6.19-6.19v-73c0-3.42-2.77-6.19-6.19-6.19"/><path class="cls-3" d="m104.17,58.84h-37.82c-3.42,0-6.19,2.77-6.19,6.19v36.87h38.58c3,0,5.43-2.77,5.43-6.19v-36.87Z"/><path class="cls-3" d="m65.86,50.71h75.22c3.42,0,6.19-2.77,6.19-6.19V10.99c0-3.42-2.77-6.19-6.19-6.19h-75.22c-3.42,0-6.19,2.77-6.19,6.19v33.52c0,3.42,2.77,6.19,6.19,6.19"/><path class="cls-3" d="m46.49,4.8H6.3C2.89,4.8.11,7.57.11,11v33.52c0,3.42,2.77,6.19,6.19,6.19h40.19c3.42,0,6.19-2.77,6.19-6.19V11c0-3.42-2.77-6.19-6.19-6.19"/><polygon class="cls-3" points="251.35 59.36 203.55 59.36 203.55 29.07 258.08 29.07 258.08 4.84 173.26 4.84 173.26 144.18 203.55 144.18 203.55 85.35 251.35 85.35 251.35 59.36"/><path class="cls-3" d="m330.24,4.8h-41.46l-42.68,139.42h32.68l9.99-36.42h40.06l10.74,36.42h34.09L330.24,4.8Zm-36.89,78.81s12.61-43.91,14.76-49.98l16.15,49.98h-30.91Z"/><path class="cls-3" d="m789.19,4.8h-41.46l-42.68,139.42h32.68l9.99-36.42h40.06l10.74,36.42h34.09L789.19,4.8Zm-36.89,78.81s12.61-43.91,14.76-49.98l16.15,49.98h-30.91Z"/><path class="cls-3" d="m449.66,27.83c11.19,0,26.54,2.48,32.98,5.18V7.93c-5.6-2.9-18.04-6.21-34.44-6.21-42.31,0-76.33,26.53-76.33,74.19,0,39.8,24.9,70.06,73.22,70.06,17,0,31.74-3.41,37.55-6.31v-24.56c-6.23,2.49-23.23,4.54-32.78,4.54-28.21,0-44.81-17.61-44.81-45.61,0-31.09,19.5-46.21,44.61-46.21"/><polygon class="cls-3" points="526.49 83.59 574.96 83.59 574.96 59.36 526.49 59.36 526.49 29.07 581.01 29.07 581.01 4.83 496.19 4.83 496.19 144.18 581.01 144.18 581.01 119.95 526.49 119.95 526.49 83.59"/><path class="cls-3" d="m676.55,68.4v-.37c12.14-5.79,22.51-17.37,22.51-29.88s-7.29-22.13-17.09-27.27c-10.18-6.07-22.97-6.04-42.3-6.04-15.78,0-41.84-.03-41.84-.03v139.38h35.11c27.73,0,45.2-3.6,55.37-11.72,8.68-7,15.32-16.99,15.32-29.6,0-18.02-14.94-30.07-27.08-34.46m-48.46-41.65c6.07-.37,8.03-.75,14.94-.75,3.64,0,6.91.37,9.71,1.03,1.12.28,2.15.56,3.08,1.03.93.28,1.77.75,2.61,1.12,4.95,2.71,7.66,7.1,7.66,12.98,0,6.44-3.17,11.49-9.52,14.48-1.96.84-4.2,1.59-6.82,2.05-1.12.18-2.43.37-3.73.46h-.19c-1.49.1-2.99.19-4.58.19h-13.17V26.75Zm13.63,94.97c-5.32,0-7.56,0-13.63-.47v-37.63h13.54c15.78,0,27.73,4.76,27.73,18.86s-13.35,19.24-27.64,19.24"/><path class="cls-3" d="m926.54,44.61c0,21.14.02,41.01.02,41.01-6.23-12.12-48.72-80.78-48.72-80.78h-36.13v139.35h30.29v-42.57c0-22.8-.02-48.22-.02-48.22,6.87,16.38,54.55,90.79,54.55,90.79h30.29V4.83h-30.29v39.77Z"/><path class="cls-3" d="m1042.57,64.14l46.26-59.3h-38.8l-31.74,45.83c-3.1,4.98-6.43,8.7-9.54,14.76h-.32V4.83h-31.68v139.35h31.68v-46.1l11.88-14.46,34.08,60.56h36.92l-48.74-80.04Z"/></g></g></svg>